<?xml version="1.0" standalone="no"?>
<!DOCTYPE svg PUBLIC "-//W3C//DTD SVG 20010904//EN"
 "http://www.w3.org/TR/2001/REC-SVG-20010904/DTD/svg10.dtd">
<svg version="1.0" xmlns="http://www.w3.org/2000/svg"
 width="800.000000pt" height="320.000000pt" viewBox="0 0 800.000000 320.000000"
 preserveAspectRatio="xMidYMid meet">

<g transform="translate(0.000000,320.000000) scale(0.100000,-0.100000)"
fill="#000000" stroke="none">
<path d="M2192 2109 c-62 -12 -158 -67 -199 -113 -166 -190 -160 -570 12 -741
143 -144 405 -152 543 -17 53 52 105 148 100 184 -2 13 -14 28 -28 35 -45 21
-69 6 -101 -63 -49 -104 -117 -147 -232 -147 -170 0 -282 131 -294 345 -12
194 56 345 179 398 97 42 231 26 289 -36 13 -13 35 -46 49 -72 22 -41 29 -47
62 -50 30 -3 40 1 53 22 15 23 15 28 -3 68 -65 148 -240 225 -430 187z"/>
<path d="M335 2091 c-11 -5 -29 -19 -40 -31 -19 -21 -20 -36 -20 -453 l0 -432
28 -13 c24 -12 31 -11 53 2 l24 16 0 200 0 200 139 0 c127 0 141 -2 172 -23
42 -27 84 -105 139 -252 50 -134 63 -155 95 -155 24 0 65 31 65 48 0 15 -91
235 -125 303 -19 37 -50 80 -71 97 l-36 30 30 7 c48 10 107 59 131 107 43 91
22 227 -45 290 -60 56 -91 62 -314 65 -113 1 -214 -1 -225 -6z m415 -109 c110
-55 107 -228 -5 -282 -36 -17 -62 -20 -203 -20 l-162 0 0 148 c0 102 4 152 12
160 8 8 60 12 168 12 128 0 161 -3 190 -18z"/>
<path d="M1195 2091 c-11 -5 -29 -19 -40 -31 -19 -21 -20 -36 -20 -431 l0
-409 28 -27 27 -28 271 -3 c291 -3 299 -2 299 47 0 49 -8 51 -253 51 -138 0
-236 4 -248 10 -18 10 -19 23 -19 170 l0 160 215 0 215 0 16 25 c14 21 15 31
6 50 l-12 25 -220 0 -220 0 0 140 c0 127 2 140 19 150 12 6 108 10 243 10 240
0 248 2 248 50 0 49 -6 50 -279 49 -141 0 -265 -4 -276 -8z"/>
<path d="M3191 2034 c-169 -45 -294 -183 -324 -358 -31 -180 70 -374 236 -456
130 -64 264 -64 394 0 166 82 267 276 236 456 -44 258 -296 424 -542 358z
m232 -34 c123 -38 229 -144 267 -267 98 -316 -197 -611 -513 -513 -123 38
-229 144 -267 267 -98 316 197 611 513 513z"/>
<path d="M3214 1786 c-103 -48 -140 -155 -90 -262 48 -103 161 -140 270 -89
77 37 121 136 98 221 -7 26 -22 60 -34 77 -25 36 -110 77 -158 77 -19 0 -58
-11 -86 -24z"/>
</g>
</svg>
